<svg width="2040" height="1769" xmlns="http://www.w3.org/2000/svg" xmlns:xlink="http://www.w3.org/1999/xlink" xml:space="preserve" overflow="hidden"><defs><filter id="fx0" x="-10%" y="-10%" width="120%" height="120%" filterUnits="userSpaceOnUse" primitiveUnits="userSpaceOnUse"><feComponentTransfer color-interpolation-filters="sRGB"><feFuncR type="discrete" tableValues="0.000000 0.000000"/><feFuncG type="discrete" tableValues="0.000000 0.000000"/><feFuncB type="discrete" tableValues="0.000000 0.000000"/><feFuncA type="linear" slope="0.400000" intercept="0.000000"/></feComponentTransfer><feGaussianBlur stdDeviation="8.841222 8.841222"/></filter><filter id="fx1" x="-10%" y="-10%" width="120%" height="120%" filterUnits="userSpaceOnUse" primitiveUnits="userSpaceOnUse"><feComponentTransfer color-interpolation-filters="sRGB"><feFuncR type="discrete" tableValues="0.000000 0.000000"/><feFuncG type="discrete" tableValues="0.000000 0.000000"/><feFuncB type="discrete" tableValues="0.000000 0.000000"/><feFuncA type="linear" slope="0.400000" intercept="0.000000"/></feComponentTransfer><feGaussianBlur stdDeviation="8.841222 8.848985"/></filter><filter id="fx2" x="-10%" y="-10%" width="120%" height="120%" filterUnits="userSpaceOnUse" primitiveUnits="userSpaceOnUse"><feComponentTransfer color-interpolation-filters="sRGB"><feFuncR type="discrete" tableValues="0.000000 0.000000"/><feFuncG type="discrete" tableValues="0.000000 0.000000"/><feFuncB type="discrete" tableValues="0.000000 0.000000"/><feFuncA type="linear" slope="0.400000" intercept="0.000000"/></feComponentTransfer><feGaussianBlur stdDeviation="8.847240 8.848295"/></filter><filter id="fx3" x="-10%" y="-10%" width="120%" height="120%" filterUnits="userSpaceOnUse" primitiveUnits="userSpaceOnUse"><feComponentTransfer color-interpolation-filters="sRGB"><feFuncR type="discrete" tableValues="0.000000 0.000000"/><feFuncG type="discrete" tableValues="0.000000 0.000000"/><feFuncB type="discrete" tableValues="0.000000 0.000000"/><feFuncA type="linear" slope="0.400000" intercept="0.000000"/></feComponentTransfer><feGaussianBlur stdDeviation="8.841222 8.841222"/></filter><filter id="fx4" x="-10%" y="-10%" width="120%" height="120%" filterUnits="userSpaceOnUse" primitiveUnits="userSpaceOnUse"><feComponentTransfer color-interpolation-filters="sRGB"><feFuncR type="discrete" tableValues="0.000000 0.000000"/><feFuncG type="discrete" tableValues="0.000000 0.000000"/><feFuncB type="discrete" tableValues="0.000000 0.000000"/><feFuncA type="linear" slope="0.400000" intercept="0.000000"/></feComponentTransfer><feGaussianBlur stdDeviation="8.749228 8.749228"/></filter><filter id="fx5" x="-10%" y="-10%" width="120%" height="120%" filterUnits="userSpaceOnUse" primitiveUnits="userSpaceOnUse"><feComponentTransfer color-interpolation-filters="sRGB"><feFuncR type="discrete" tableValues="0.000000 0.000000"/><feFuncG type="discrete" tableValues="0.000000 0.000000"/><feFuncB type="discrete" tableValues="0.000000 0.000000"/><feFuncA type="linear" slope="0.400000" intercept="0.000000"/></feComponentTransfer><feGaussianBlur stdDeviation="8.749228 8.749228"/></filter><filter id="fx6" x="-10%" y="-10%" width="120%" height="120%" filterUnits="userSpaceOnUse" primitiveUnits="userSpaceOnUse"><feComponentTransfer color-interpolation-filters="sRGB"><feFuncR type="discrete" tableValues="0.000000 0.000000"/><feFuncG type="discrete" tableValues="0.000000 0.000000"/><feFuncB type="discrete" tableValues="0.000000 0.000000"/><feFuncA type="linear" slope="0.400000" intercept="0.000000"/></feComponentTransfer><feGaussianBlur stdDeviation="8.732725 8.760331"/></filter><clipPath id="clip7"><path d="M1209 474 1209 2017 1562 2017 1562 474ZM1095 380 3135 380 3135 2149 1095 2149Z" fill-rule="evenodd" clip-rule="evenodd"/></clipPath><clipPath id="clip8"><rect x="0.533691" y="0.633133" width="181.833" height="585.644"/></clipPath><clipPath id="clip9"><rect x="0" y="0" width="183" height="587"/></clipPath><clipPath id="clip10"><rect x="0" y="0" width="183" height="587"/></clipPath><clipPath id="clip11"><path d="M1517.01 1090.79 1306.4 1300.97 2020.79 2016.81 2441.16 2016.81ZM1095 380 3135 380 3135 2149 1095 2149Z" fill-rule="evenodd" clip-rule="evenodd"/></clipPath><clipPath id="clip12"><rect x="0.421844" y="0.495422" width="455.969" height="378.882"/></clipPath><clipPath id="clip13"><rect x="0" y="0" width="457" height="380"/></clipPath><clipPath id="clip14"><rect x="0" y="0" width="457" height="380"/></clipPath><clipPath id="clip15"><path d="M2547.47 474.058 2133.38 474.059 1306.4 1299.2 1516.56 1509.83 2551.05 477.645ZM1095 380 3135 380 3135 2149 1095 2149Z" fill-rule="evenodd" clip-rule="evenodd"/></clipPath><clipPath id="clip16"><rect x="0.513672" y="0.486801" width="488.933" height="416.121"/></clipPath><clipPath id="clip17"><path d="M2696 466 2696 2009 3049 2009 3049 466ZM1095 380 3135 380 3135 2149 1095 2149Z" fill-rule="evenodd" clip-rule="evenodd"/></clipPath><clipPath id="clip18"><rect x="0.533691" y="0.633163" width="181.833" height="585.644"/></clipPath><clipPath id="clip19"><rect x="0.492615" y="0.51297" width="420.055" height="420.055"/></clipPath><clipPath id="clip20"><rect x="0.492615" y="0.51297" width="420.055" height="420.055"/></clipPath><clipPath id="clip21"><rect x="0.464355" y="0.72998" width="194.043" height="194.657"/></clipPath><clipPath id="clip22"><rect x="0" y="0" width="195" height="196"/></clipPath><clipPath id="clip23"><rect x="0" y="0" width="195" height="196"/></clipPath></defs><g transform="translate(-1095 -380)"><g><g clip-path="url(#clip7)"><g clip-path="url(#clip8)" filter="url(#fx0)" transform="matrix(3 0 0 3 1098 389)"><g clip-path="url(#clip9)"><g clip-path="url(#clip10)" transform="matrix(1 0 0 1 1.09076e-05 -1.2219e-06)"><rect x="31.5574" y="31.6568" width="119.786" height="523.596" stroke="#000000" stroke-width="9" stroke-linecap="butt" stroke-linejoin="miter" stroke-miterlimit="8" stroke-opacity="1" fill="#75ADB0" fill-opacity="1"/></g></g></g></g><rect x="1209" y="474" width="353" height="1543" stroke="#000000" stroke-width="27.5" stroke-linecap="butt" stroke-linejoin="miter" stroke-miterlimit="8" stroke-opacity="1" fill="#75ADB0" fill-opacity="1"/><g clip-path="url(#clip11)"><g clip-path="url(#clip12)" filter="url(#fx1)" transform="matrix(3 0 0 2.99737 1175 1000)"><g clip-path="url(#clip13)" transform="translate(-5.68434e-14 0)"><g clip-path="url(#clip14)" transform="matrix(1 0 0 1 1.7345e-05 -4.29153e-06)"><path d="M105.014 33.6496 418.614 348.158 275.967 348.158 33.547 105.035Z" stroke="#000000" stroke-width="9.33994" stroke-linecap="butt" stroke-linejoin="miter" stroke-miterlimit="8" stroke-opacity="1" fill="#75ADB0" fill-rule="evenodd" fill-opacity="1"/></g></g></g></g><path d="M1517.01 1090.79 2441.16 2016.81 2020.79 2016.81 1306.4 1300.97Z" stroke="#000000" stroke-width="27.5" stroke-linecap="butt" stroke-linejoin="miter" stroke-miterlimit="8" stroke-opacity="1" fill="#75ADB0" fill-rule="evenodd" fill-opacity="1"/><g clip-path="url(#clip15)"><g clip-path="url(#clip16)" filter="url(#fx2)" transform="matrix(2.99796 0 0 2.9976 1173 389)"><g><g transform="matrix(1 0 0 1 4.05312e-06 8.28505e-06)"><path d="M314.475 31.7017 455.087 31.7016 456.302 32.9195 105.023 383.458 33.6588 311.927Z" stroke="#000000" stroke-width="9.33923" stroke-linecap="butt" stroke-linejoin="miter" stroke-miterlimit="8" stroke-opacity="1" fill="#75ADB0" fill-rule="evenodd" fill-opacity="1"/></g></g></g></g><path d="M2133.38 474.059 2547.47 474.058 2551.05 477.645 1516.56 1509.83 1306.4 1299.2Z" stroke="#000000" stroke-width="27.5" stroke-linecap="butt" stroke-linejoin="miter" stroke-miterlimit="8" stroke-opacity="1" fill="#75ADB0" fill-rule="evenodd" fill-opacity="1"/><path d="M1719.25 1291.87 1508.64 1502.05 1306.4 1299.4 1517.01 1089.22Z" stroke="#000000" stroke-width="27.5" stroke-linecap="butt" stroke-linejoin="miter" stroke-miterlimit="8" stroke-opacity="1" fill="#75ADB0" fill-rule="nonzero" fill-opacity="1"/><g clip-path="url(#clip17)"><g clip-path="url(#clip18)" filter="url(#fx3)" transform="matrix(3 0 0 3 2585 381)"><g><g transform="matrix(1 0 0 1 5.33462e-06 3.78489e-06)"><rect x="31.5574" y="31.6568" width="119.786" height="523.596" stroke="#000000" stroke-width="9" stroke-linecap="butt" stroke-linejoin="miter" stroke-miterlimit="8" stroke-opacity="1" fill="#75ADB0" fill-opacity="1"/></g></g></g></g><rect x="2696" y="466" width="353" height="1543" stroke="#000000" stroke-width="27.5" stroke-linecap="butt" stroke-linejoin="miter" stroke-miterlimit="8" stroke-opacity="1" fill="#75ADB0" fill-opacity="1"/><rect x="2027" y="1715" width="1022" height="298" stroke="#000000" stroke-width="27.5" stroke-linecap="butt" stroke-linejoin="miter" stroke-miterlimit="8" stroke-opacity="1" fill="#75ADB0" fill-opacity="1"/><g clip-path="url(#clip19)" filter="url(#fx4)" transform="matrix(2.61045 0 0 2.61045 1596 798)"><g transform="translate(-1.13687e-13 -5.68434e-14)"><g transform="matrix(1 0 0 1 4.52995e-06 2.26498e-06)"><path d="M322.841 26.7607 394.3 98.2196 98.1992 394.32 26.7403 322.861Z" fill="#CC3D33" fill-rule="nonzero" fill-opacity="1"/></g></g></g><path d="M2459.04 858.135 2635.02 1034.12 1905.82 1763.32 1729.84 1587.34Z" fill="#CC3D33" fill-rule="nonzero" fill-opacity="1"/><rect x="2027" y="1422" width="298" height="595" stroke="#000000" stroke-width="27.5" stroke-linecap="butt" stroke-linejoin="miter" stroke-miterlimit="8" stroke-opacity="1" fill="#75ADB0" fill-opacity="1"/><g clip-path="url(#clip20)" filter="url(#fx5)" transform="matrix(2.61045 0 0 2.61045 1596 798)"><g transform="translate(-1.13687e-13 -5.68434e-14)"><g transform="matrix(1 0 0 1 4.52995e-06 2.26498e-06)"><path d="M26.7403 98.2196 98.1993 26.7607 394.3 322.861 322.841 394.32Z" fill="#9457B3" fill-rule="nonzero" fill-opacity="1"/></g></g></g><path d="M1729.84 1034.12 1905.82 858.135 2635.02 1587.34 2459.04 1763.32Z" fill="#9457B3" fill-rule="nonzero" fill-opacity="1"/><rect x="2027" y="1712" width="297" height="305" stroke="#000000" stroke-width="27.5" stroke-linecap="butt" stroke-linejoin="miter" stroke-miterlimit="8" stroke-opacity="1" fill="#75ADB0" fill-opacity="1"/><g clip-path="url(#clip21)" filter="url(#fx6)" transform="matrix(2.61538 0 0 2.60714 1909 1074)"><g clip-path="url(#clip22)"><g clip-path="url(#clip23)" transform="matrix(1 0 0 1 3.49283e-05 -1.8537e-05)"><path d="M26.6625 98.5606 97.9867 27.011 168.309 97.5559 96.9852 169.106Z" fill="#379925" fill-rule="nonzero" fill-opacity="1"/></g></g></g><path d="M2009.42 1310.68 2185.41 1134.7 2358.92 1308.21 2182.94 1484.19Z" fill="#379925" fill-rule="nonzero" fill-opacity="1"/></g></g></svg>